<svg width="75" height="75" viewBox="0 0 75 75" fill="none" xmlns="http://www.w3.org/2000/svg">
<rect opacity="0.1" x="0.402344" y="0.473633" width="74.4006" height="74.4006" rx="12.0016" fill="#5CC162"/>
<path d="M55.6196 49.7128C55.4859 50.3745 55.2819 51.0005 54.8359 51.5193C54.2801 52.1672 53.5932 52.5439 52.7655 52.6356C52.5676 52.6576 52.3671 52.6594 52.1683 52.6594C42.4591 52.6603 32.7499 52.6567 23.0406 52.6649C21.9025 52.6658 20.9508 52.2983 20.2419 51.3451C19.7943 50.743 19.599 50.0473 19.5964 49.2967C19.5893 47.3417 19.5753 45.3858 19.5999 43.4317C19.6377 40.5272 21.7679 38.1699 24.5543 38.0205C26.0152 37.9426 27.4876 37.9655 28.9467 38.0682C29.558 38.1112 29.8746 38.0287 30.2441 37.4706C31.2274 35.983 32.6557 35.2131 34.3981 35.193C36.6022 35.1664 38.8081 35.1417 41.0105 35.2113C42.8355 35.2691 44.2384 36.2039 45.2041 37.8161C45.373 38.0984 45.5216 38.2166 45.8365 38.1121C46.0344 38.0462 46.2517 38.0223 46.461 38.0223C47.9843 38.0251 49.5156 37.9371 51.0284 38.0718C53.3196 38.2762 55.201 40.2504 55.5501 42.6142C55.5642 42.7086 55.5968 42.8012 55.6205 42.8937C55.6196 45.1667 55.6196 47.4397 55.6196 49.7128ZM43.869 50.4423C43.8751 50.3168 43.8822 50.2315 43.8822 50.1472C43.8831 47.0328 43.891 43.9193 43.8795 40.8049C43.8725 38.7702 42.5374 37.3899 40.5786 37.3798C38.5979 37.3688 36.6181 37.3725 34.6373 37.3826C34.3128 37.3844 33.9759 37.4119 33.6655 37.5045C32.1834 37.9499 31.3356 39.1671 31.3329 40.8388C31.3268 43.9285 31.3312 47.0181 31.332 50.1078C31.332 50.2141 31.3444 50.3195 31.3523 50.4414C35.5283 50.4423 39.6833 50.4423 43.869 50.4423ZM29.2194 50.4396C29.2194 50.27 29.2194 50.1261 29.2194 49.9831C29.2194 47.0044 29.2194 44.0247 29.2194 41.046C29.2194 40.2138 29.2194 40.2009 28.3935 40.1918C27.2457 40.1789 26.097 40.1808 24.9492 40.1927C24.6713 40.1954 24.3846 40.2275 24.1172 40.3045C22.6079 40.7362 21.7134 41.9653 21.7064 43.6187C21.6985 45.4619 21.7037 47.3059 21.7046 49.15C21.7055 50.0583 22.0925 50.4597 22.9738 50.4597C24.9308 50.4616 26.8869 50.4607 28.8438 50.4597C28.9573 50.4588 29.0707 50.4478 29.2194 50.4396ZM46.0098 50.4515C48.2209 50.4515 50.3872 50.4625 52.5544 50.4442C53.1068 50.4396 53.5034 49.9511 53.5061 49.3342C53.514 47.393 53.5281 45.4518 53.5026 43.5106C53.4788 41.7398 52.3389 40.3833 50.6493 40.2495C49.2755 40.1404 47.8876 40.2147 46.5067 40.2174C46.3378 40.2174 46.169 40.2816 46.0107 40.3137C46.0098 43.7039 46.0098 47.0585 46.0098 50.4515Z" fill="#5CC162"/>
<path d="M37.6131 22.1133C41.0679 22.1197 43.871 25.0462 43.8684 28.6409C43.8649 32.2282 41.0345 35.1749 37.599 35.1657C34.1548 35.1565 31.3376 32.2117 31.3438 28.6262C31.3499 25.0297 34.1636 22.1069 37.6131 22.1133ZM37.6052 24.313C35.3087 24.313 33.4511 26.2515 33.4547 28.6436C33.4582 31.011 35.314 32.9523 37.5885 32.966C39.8682 32.9807 41.754 31.0239 41.7566 28.6418C41.7601 26.2505 39.9017 24.313 37.6052 24.313Z" fill="#5CC162"/>
<path d="M21.945 33.0068C22.018 30.2682 24.15 28.1061 26.7042 28.1821C29.3121 28.2591 31.3869 30.4735 31.3271 33.1158C31.2655 35.838 29.1186 38.0166 26.5653 37.9487C23.9706 37.8791 21.8756 35.6372 21.945 33.0068ZM26.6215 30.3836C25.2046 30.3956 24.0436 31.6146 24.0594 33.0755C24.0753 34.5466 25.2574 35.7665 26.6488 35.7481C28.0587 35.7298 29.2338 34.4925 29.2144 33.048C29.1942 31.5706 28.027 30.3717 26.6215 30.3836Z" fill="#5CC162"/>
<path d="M53.2685 33.0068C53.338 35.6382 51.2421 37.88 48.6483 37.9487C46.0942 38.0166 43.9481 35.838 43.8865 33.1158C43.8267 30.4735 45.9015 28.2591 48.5094 28.1821C51.0635 28.1061 53.1955 30.2682 53.2685 33.0068ZM51.1374 33.2194C51.2562 31.8831 50.2069 30.5395 48.9421 30.4111C47.3554 30.2498 46.1399 31.2718 46.0185 32.939C45.9209 34.2808 46.8928 35.6143 48.4601 35.7426C49.7917 35.8517 51.0037 34.7244 51.1374 33.2194Z" fill="#5CC162"/>
</svg>
